<?xml version="1.0" encoding="UTF-8"?>
<svg id="Capa_2" data-name="Capa 2" xmlns="http://www.w3.org/2000/svg" viewBox="0 0 212.46 43.62">
  <defs>
    <style>
      .cls-1 {
        fill: #e1dcc8;
      }
    </style>
  </defs>
  <g id="Capa_1-2" data-name="Capa 1">
    <path class="cls-1" d="m24.64,41.65l-11.32-16.87v18.42H3.5c-1.93,0-3.5-1.57-3.5-3.5V4.22C0,2.29,1.57.72,3.5.72h9.82v17.88L24.46,2.25c.65-.96,1.73-1.53,2.89-1.53h6.39c2.85,0,4.5,3.23,2.84,5.54l-10.65,14.8,11.72,16.63c1.63,2.32-.02,5.51-2.86,5.51h-7.23c-1.17,0-2.25-.58-2.9-1.55Z"/>
    <path class="cls-1" d="m61.46,22.26v.89c0,2.79-2.26,5.04-5.04,5.04h-7.87c-2.79,0-5.04-2.26-5.04-5.04v-.89c0-2.79,2.26-5.04,5.04-5.04h7.87c2.79,0,5.04,2.26,5.04,5.04Z"/>
    <path class="cls-1" d="m109.23,3.42c3.34,1.8,5.91,4.3,7.71,7.5,1.8,3.2,2.7,6.84,2.7,10.92s-.9,7.68-2.7,10.92c-1.8,3.24-4.37,5.79-7.71,7.65-3.34,1.86-7.23,2.79-11.67,2.79h-15.84c-1.03,0-1.86-.83-1.86-1.86V2.58c0-1.03.83-1.86,1.86-1.86h15.84c4.44,0,8.33.9,11.67,2.7Zm-5.73,25.44c1.76-1.64,2.64-3.98,2.64-7.02s-.88-5.38-2.64-7.02c-1.76-1.64-4.14-2.46-7.14-2.46h-1.32c-1.03,0-1.86.83-1.86,1.86v15.24c0,1.03.83,1.86,1.86,1.86h1.32c3,0,5.38-.82,7.14-2.46Z"/>
    <path class="cls-1" d="m134.13,40.8c-3.34-1.88-5.99-4.48-7.95-7.8-1.96-3.32-2.94-7.06-2.94-11.22s.98-7.9,2.94-11.22c1.96-3.32,4.61-5.91,7.95-7.77,3.34-1.86,7.01-2.79,11.01-2.79s7.66.93,10.98,2.79c3.32,1.86,5.95,4.45,7.89,7.77,1.94,3.32,2.91,7.06,2.91,11.22s-.97,7.9-2.91,11.22c-1.94,3.32-4.58,5.92-7.92,7.8-3.34,1.88-6.99,2.82-10.95,2.82s-7.67-.94-11.01-2.82Zm17.13-12.15c1.44-1.7,2.16-3.99,2.16-6.87s-.72-5.23-2.16-6.93c-1.44-1.7-3.48-2.55-6.12-2.55s-4.74.85-6.18,2.55c-1.44,1.7-2.16,4.01-2.16,6.93s.72,5.17,2.16,6.87c1.44,1.7,3.5,2.55,6.18,2.55s4.68-.85,6.12-2.55Z"/>
    <path class="cls-1" d="m211.12,43.2h-11.26c-.45,0-.87-.23-1.12-.6l-11.24-17.03c-.73-1.11-2.46-.59-2.46.74v15.55c0,.74-.6,1.34-1.34,1.34h-10.64c-.74,0-1.34-.6-1.34-1.34V2.06c0-.74.6-1.34,1.34-1.34h11.25c.45,0,.88.23,1.12.61l11.24,17.31c.73,1.12,2.47.61,2.47-.73V2.06c0-.74.6-1.34,1.34-1.34h10.64c.74,0,1.34.6,1.34,1.34v39.8c0,.74-.6,1.34-1.34,1.34Z"/>
  </g>
</svg>